<svg width="32" height="32" viewBox="0 0 32 32" fill="none" xmlns="http://www.w3.org/2000/svg">
<circle cx="16" cy="16" r="15.5" stroke="black"/>
<path d="M8.03906 9.64453C9.51042 9.69661 10.6693 9.72266 11.5156 9.72266C12.7461 9.72266 13.8464 9.69661 14.8164 9.64453C14.8424 9.7487 14.8555 9.82031 14.8555 9.85938C14.8555 9.93099 14.8424 10.0124 14.8164 10.1035C13.957 10.1296 13.3743 10.1947 13.0684 10.2988C12.7689 10.3965 12.6191 10.569 12.6191 10.8164C12.6191 10.8229 12.6647 10.9857 12.7559 11.3047L16.8184 20.7383H16.916L20.7246 11.1777C20.7637 11.0801 20.7832 10.9531 20.7832 10.7969C20.7832 10.582 20.666 10.429 20.4316 10.3379C20.1973 10.2467 19.7936 10.1686 19.2207 10.1035C19.1947 9.96029 19.1816 9.8724 19.1816 9.83984C19.1816 9.78776 19.1947 9.72266 19.2207 9.64453C20.0605 9.68359 20.819 9.70312 21.4961 9.70312C22.2383 9.70312 22.9805 9.68359 23.7227 9.64453C23.7487 9.72266 23.7617 9.78776 23.7617 9.83984C23.7617 9.94401 23.7487 10.0319 23.7227 10.1035C23.2344 10.1491 22.8275 10.25 22.502 10.4062C22.1829 10.556 21.9355 10.8132 21.7598 11.1777L16.4766 24.2832H16.0176L10.3438 11.3047C10.0443 10.6211 9.27604 10.2207 8.03906 10.1035C8.01302 9.98633 8 9.90495 8 9.85938C8 9.79427 8.01302 9.72266 8.03906 9.64453Z" fill="black"/>
</svg>
